ffmpeg version 4.2.7-0ubuntu0.1 Copyright (c) 2000-2022 the FFmpeg developers
  built with gcc 9 (Ubuntu 9.4.0-1ubuntu1~20.04.1)
  configuration: --prefix=/usr --extra-version=0ubuntu0.1 --toolchain=hardened --libdir=/usr/lib/x86_64-linux-gnu --incdir=/usr/include/x86_64-linux-gnu --arch=amd64 --enable-gpl --disable-stripping --enable-avresample --disable-filter=resample --enable-avisynth --enable-gnutls --enable-ladspa --enable-libaom --enable-libass --enable-libbluray --enable-libbs2b --enable-libcaca --enable-libcdio --enable-libcodec2 --enable-libflite --enable-libfontconfig --enable-libfreetype --enable-libfribidi --enable-libgme --enable-libgsm --enable-libjack --enable-libmp3lame --enable-libmysofa --enable-libopenjpeg --enable-libopenmpt --enable-libopus --enable-libpulse --enable-librsvg --enable-librubberband --enable-libshine --enable-libsnappy --enable-libsoxr --enable-libspeex --enable-libssh --enable-libtheora --enable-libtwolame --enable-libvidstab --enable-libvorbis --enable-libvpx --enable-libwavpack --enable-libwebp --enable-libx265 --enable-libxml2 --enable-libxvid --enable-libzmq --enable-libzvbi --enable-lv2 --enable-omx --enable-openal --enable-opencl --enable-opengl --enable-sdl2 --enable-libdc1394 --enable-libdrm --enable-libiec61883 --enable-nvenc --enable-chromaprint --enable-frei0r --enable-libx264 --enable-shared
  libavutil      56. 31.100 / 56. 31.100
  libavcodec     58. 54.100 / 58. 54.100
  libavformat    58. 29.100 / 58. 29.100
  libavdevice    58.  8.100 / 58.  8.100
  libavfilter     7. 57.100 /  7. 57.100
  libavresample   4.  0.  0 /  4.  0.  0
  libswscale      5.  5.100 /  5.  5.100
  libswresample   3.  5.100 /  3.  5.100
  libpostproc    55.  5.100 / 55.  5.100
Routing option strict to both codec and muxer layer
[h264 @ 0x559db85dad40] Reinit context to 960x544, pix_fmt: yuv420p
Input #0, mov,mp4,m4a,3gp,3g2,mj2, from '/var/www/html/project/media/video/original/1000047463.mp4':
  Metadata:
    major_brand     : mp42
    minor_version   : 0
    compatible_brands: mp41isom
    creation_time   : 2024-07-18T18:14:13.000000Z
  Duration: 00:00:31.10, start: 0.000000, bitrate: 2013 kb/s
    Stream #0:0(und): Video: h264 (Constrained Baseline), 1 reference frame (avc1 / 0x31637661), yuv420p(left), 960x544 [SAR 1:1 DAR 30:17], 2010 kb/s, 29.55 fps, 29.97 tbr, 29552 tbn, 59.10 tbc (default)
    Metadata:
      creation_time   : 2024-07-18T18:14:13.000000Z
      handler_name    : VideoHandler
      encoder         : AVC Coding
Input #1, png_pipe, from '/var/www/html/project/static/images/templates/logo.png':
  Duration: N/A, bitrate: N/A
    Stream #1:0: Video: png, 1 reference frame, rgba(pc), 1920x1080 [SAR 2835:2835 DAR 16:9], 25 tbr, 25 tbn, 25 tbc
[Parsed_scale_0 @ 0x559db8608900] w:1280 h:720 flags:'bilinear' interl:0
[Parsed_scale_2 @ 0x559db8609300] w:1280 h:720 flags:'bilinear' interl:0
Stream mapping:
  Stream #0:0 (h264) -> scale
  Stream #1:0 (png) -> scale
  overlay -> Stream #0:0 (libx264)
Press [q] to stop, [?] for help
[h264 @ 0x559db85fe7c0] Reinit context to 960x544, pix_fmt: yuv420p
[Parsed_scale_0 @ 0x559db8b96dc0] w:1280 h:720 flags:'bilinear' interl:0
[Parsed_scale_2 @ 0x559db8b9b100] w:1280 h:720 flags:'bilinear' interl:0
[graph 0 input from stream 0:0 @ 0x559db8b9ca40] w:960 h:544 pixfmt:yuv420p tb:1/29552 fr:30000/1001 sar:1/1 sws_param:flags=2
[graph 0 input from stream 1:0 @ 0x559db8b9db00] w:1920 h:1080 pixfmt:rgba tb:1/25 fr:25/1 sar:2835/2835 sws_param:flags=2
[Parsed_scale_0 @ 0x559db8b96dc0] w:960 h:544 fmt:yuv420p sar:1/1 -> w:1280 h:720 fmt:yuv420p sar:135/136 flags:0x2
[Parsed_setsar_1 @ 0x559db8b9aac0] w:1280 h:720 sar:135/136 dar:30/17 -> sar:1/1 dar:16/9
[Parsed_scale_2 @ 0x559db8b9b100] w:1920 h:1080 fmt:rgba sar:2835/2835 -> w:1280 h:720 fmt:yuva420p sar:1/1 flags:0x2
[Parsed_setsar_3 @ 0x559db8b9b540] w:1280 h:720 sar:1/1 dar:16/9 -> sar:1/1 dar:16/9
[Parsed_overlay_4 @ 0x559db8b9bd00] main w:1280 h:720 fmt:yuv420p overlay w:1280 h:720 fmt:yuva420p
[Parsed_overlay_4 @ 0x559db8b9bd00] [framesync @ 0x559db8b9be68] Selected 1/1000000 time base
[Parsed_overlay_4 @ 0x559db8b9bd00] [framesync @ 0x559db8b9be68] Sync level 2
[libx264 @ 0x559db85fd200] using SAR=1/1
[libx264 @ 0x559db85fd200] using cpu capabilities: MMX2 SSE2Fast SSSE3 SSE4.2 AVX FMA3 BMI2 AVX2
[libx264 @ 0x559db85fd200] profile High, level 3.1
[libx264 @ 0x559db85fd200] 264 - core 155 r2917 0a84d98 - H.264/MPEG-4 AVC codec - Copyleft 2003-2018 - http://www.videolan.org/x264.html - options: cabac=1 ref=1 deblock=1:0:0 analyse=0x3:0x113 me=hex subme=2 psy=1 psy_rd=1.00:0.00 mixed_ref=0 me_range=16 chroma_me=1 trellis=0 8x8dct=1 cqm=0 deadzone=21,11 fast_pskip=1 chroma_qp_offset=0 threads=22 lookahead_threads=5 sliced_threads=0 nr=0 decimate=1 interlaced=0 bluray_compat=0 constrained_intra=0 bframes=3 b_pyramid=2 b_adapt=1 b_bias=0 direct=1 weightb=1 open_gop=0 weightp=1 keyint=250 keyint_min=25 scenecut=40 intra_refresh=0 rc_lookahead=10 rc=crf mbtree=1 crf=18.0 qcomp=0.60 qpmin=0 qpmax=69 qpstep=4 ip_ratio=1.40 aq=1:1.00
Output #0, mp4, to '/var/www/html/project/media/video/watermarks/1000047463.mp4':
  Metadata:
    major_brand     : mp42
    minor_version   : 0
    compatible_brands: mp41isom
    encoder         : Lavf58.29.100
    Stream #0:0: Video: h264 (libx264), 1 reference frame (avc1 / 0x31637661), yuv420p, 1280x720 [SAR 1:1 DAR 16:9], q=-1--1, 29.97 fps, 30k tbn, 29.97 tbc (default)
    Metadata:
      encoder         : Lavc58.54.100 libx264
    Side data:
      cpb: bitrate max/min/avg: 0/0/0 buffer size: 0 vbv_delay: -1
[Parsed_overlay_4 @ 0x559db8b9bd00] [framesync @ 0x559db8b9be68] Sync level 0
No more output streams to write to, finishing.
frame=  919 fps= 89 q=-1.0 Lsize=   22832kB time=00:00:30.99 bitrate=6034.1kbits/s speed=3.01x    
[AVIOContext @ 0x559db85d90c0] Statistics: 0 seeks, 21 writeouts
video:22821kB audio:0kB subtitle:0kB other streams:0kB global headers:0kB muxing overhead: 0.049459%
Input file #0 (/var/www/html/project/media/video/original/1000047463.mp4):
  Input stream #0:0 (video): 919 packets read (7816845 bytes); 919 frames decoded; 
  Total: 919 packets (7816845 bytes) demuxed
Input file #1 (/var/www/html/project/static/images/templates/logo.png):
  Input stream #1:0 (video): 1 packets read (111578 bytes); 1 frames decoded; 
  Total: 1 packets (111578 bytes) demuxed
Output file #0 (/var/www/html/project/media/video/watermarks/1000047463.mp4):
  Output stream #0:0 (video): 919 frames encoded; 919 packets muxed (23368643 bytes); 
  Total: 919 packets (23368643 bytes) muxed
[AVIOContext @ 0x559db85dff80] Statistics: 2 seeks, 93 writeouts
[libx264 @ 0x559db85fd200] frame I:5     Avg QP:17.00  size:159539
[libx264 @ 0x559db85fd200] frame P:332   Avg QP:19.99  size: 50080
[libx264 @ 0x559db85fd200] frame B:582   Avg QP:23.76  size: 10212
[libx264 @ 0x559db85fd200] consecutive B-frames:  9.5% 15.0%  9.8% 65.7%
[libx264 @ 0x559db85fd200] mb I  I16..4:  0.4%  5.6% 94.0%
[libx264 @ 0x559db85fd200] mb P  I16..4:  0.2%  1.7%  3.0%  P16..4: 33.9% 25.3% 27.1%  0.0%  0.0%    skip: 9.0%
[libx264 @ 0x559db85fd200] mb B  I16..4:  0.0%  0.1%  0.0%  B16..8: 25.7% 12.5%  2.4%  direct:18.0%  skip:41.2%  L0:29.9% L1:42.6% BI:27.5%
[libx264 @ 0x559db85fd200] 8x8 transform intra:28.6% inter:28.7%
[libx264 @ 0x559db85fd200] coded y,uvDC,uvAC intra: 90.5% 45.4% 11.7% inter: 32.7% 8.0% 0.4%
[libx264 @ 0x559db85fd200] i16 v,h,dc,p: 35% 25% 30% 10%
[libx264 @ 0x559db85fd200] i8 v,h,dc,ddl,ddr,vr,hd,vl,hu: 24% 21% 17%  5%  7%  7%  7%  6%  7%
[libx264 @ 0x559db85fd200] i4 v,h,dc,ddl,ddr,vr,hd,vl,hu: 20% 18% 13%  7%  9%  9%  8%  8%  8%
[libx264 @ 0x559db85fd200] i8c dc,h,v,p: 60% 19% 17%  4%
[libx264 @ 0x559db85fd200] Weighted P-Frames: Y:14.5% UV:0.9%
[libx264 @ 0x559db85fd200] kb/s:6011.49
[AVIOContext @ 0x559db85e2040] Statistics: 7827147 bytes read, 0 seeks
[AVIOContext @ 0x559db8607580] Statistics: 111578 bytes read, 0 seeks
